<?xml version="1.0" encoding="UTF-8"?>
<svg version="1.1" xmlns="http://www.w3.org/2000/svg" width="48" height="48">
<path d="M0 0 C0.69931641 -0.020625 1.39863281 -0.04125 2.11914062 -0.0625 C9.22177913 -0.11565352 14.04883875 2.51702253 19.1875 7.25 C25.04126008 15.21761789 24.84231759 22.755145 24.1875 32.25 C22.64719297 38.47618084 18.48169926 42.7939115 13.1875 46.25 C6.44410565 49.69243208 -3.11285694 49.31098002 -10.390625 47.66796875 C-16.02848385 45.23747448 -19.58988448 40.3221166 -22.8125 35.25 C-25.04718497 28.54594509 -25.07614895 19.83334738 -22.71875 13.1484375 C-17.41697632 3.81393171 -10.63597674 0.07714217 0 0 Z " fill="#EFEAEE" transform="translate(23.8125,-0.25)"/>
<path d="M0 0 C0.69931641 -0.020625 1.39863281 -0.04125 2.11914062 -0.0625 C9.22177913 -0.11565352 14.04883875 2.51702253 19.1875 7.25 C25.04126008 15.21761789 24.84231759 22.755145 24.1875 32.25 C22.64719297 38.47618084 18.48169926 42.7939115 13.1875 46.25 C6.44410565 49.69243208 -3.11285694 49.31098002 -10.390625 47.66796875 C-16.02848385 45.23747448 -19.58988448 40.3221166 -22.8125 35.25 C-25.04718497 28.54594509 -25.07614895 19.83334738 -22.71875 13.1484375 C-17.41697632 3.81393171 -10.63597674 0.07714217 0 0 Z M-15.1875 13.890625 C-17.77017558 17.72876787 -18.46358537 21.38725649 -18.28515625 25.89453125 C-17.42909785 30.16067351 -15.19019208 33.65798661 -12.8125 37.25 C-12.1525 37.25 -11.4925 37.25 -10.8125 37.25 C-10.8125 37.91 -10.8125 38.57 -10.8125 39.25 C-5.23259607 41.80403691 0.13750547 42.11428493 6.1875 41.25 C9.25474457 38.93743996 9.25474457 38.93743996 11.1875 36.25 C12.1775 36.25 13.1675 36.25 14.1875 36.25 C17.77063794 30.20345473 19.46384087 25.30346273 18.1875 18.25 C16.26503513 13.29922763 13.22297572 9.25163888 8.3359375 6.8828125 C-1.47143922 3.99409427 -8.7470991 6.20605574 -15.1875 13.890625 Z " fill="#FCFCFC" transform="translate(23.8125,-0.25)"/>
<path d="M0 0 C0 1.65 0 3.3 0 5 C-1.32 5.33 -2.64 5.66 -4 6 C-4.144375 6.5775 -4.28875 7.155 -4.4375 7.75 C-4.95833333 9.83333333 -5.47916667 11.91666667 -6 14 C-4.7625 14.7734375 -4.7625 14.7734375 -3.5 15.5625 C-1 18 -1 18 -0.4375 21.5625 C-1 25 -1 25 -2.66015625 26.6953125 C-5.61552006 28.34321152 -7.6314779 28.36723848 -11 28.3125 C-12.03125 28.30863281 -13.0625 28.30476563 -14.125 28.30078125 C-16.92633186 28.00770713 -18.61170203 27.44101632 -21 26 C-20.70179167 22.42150008 -20.25754642 21.23773516 -17.5625 18.75 C-15 17 -15 17 -13 16 C-12.34786708 13.97536745 -12.34786708 13.97536745 -12 12 C-13.65 12 -15.3 12 -17 12 C-17.19658808 10.58456585 -17.38187546 9.16755969 -17.5625 7.75 C-17.66691406 6.96109375 -17.77132813 6.1721875 -17.87890625 5.359375 C-18.00199531 2.96112361 -17.80613642 1.25520373 -17 -1 C-11.2949571 -5.07503064 -5.82760385 -2.37055072 0 0 Z " fill="#394E5C" transform="translate(35,13)"/>
<path d="M0 0 C4.66398763 2.6240379 7.98778231 5.9466331 9.58984375 11.11328125 C10.64421535 17.83490019 9.57892384 23.53730434 5.58984375 29.11328125 C4.92984375 29.44328125 4.26984375 29.77328125 3.58984375 30.11328125 C3.46484375 23.48828125 3.46484375 23.48828125 4.58984375 20.11328125 C4.50217288 17.36720349 4.3602764 14.66236617 4.15234375 11.92578125 C4.0740332 10.80139648 4.0740332 10.80139648 3.99414062 9.65429688 C3.86470591 7.80691043 3.72797857 5.96003754 3.58984375 4.11328125 C-5.20457395 1.53104226 -5.20457395 1.53104226 -13.72265625 3.42578125 C-15.65705542 5.10862278 -15.65705542 5.10862278 -16.41015625 8.11328125 C-17.07015625 8.11328125 -17.73015625 8.11328125 -18.41015625 8.11328125 C-20.58827766 12.46952407 -20.91053364 16.34045076 -20.41015625 21.11328125 C-19.52800738 23.99543012 -19.52800738 23.99543012 -18.41015625 26.11328125 C-19.40015625 27.10328125 -20.39015625 28.09328125 -21.41015625 29.11328125 C-25.02984397 24.36890484 -27.27868017 20.4306832 -26.890625 14.34765625 C-25.72389609 8.92189255 -22.47693805 4.71628203 -18.34765625 1.11328125 C-12.90990791 -2.37732576 -5.9280229 -2.18097439 0 0 Z " fill="#CE8BAF" transform="translate(32.41015625,6.88671875)"/>
<path d="M0 0 C1.97789479 0.74214813 3.93768938 1.53212153 5.89453125 2.328125 C5.89453125 3.978125 5.89453125 5.628125 5.89453125 7.328125 C4.57453125 7.658125 3.25453125 7.988125 1.89453125 8.328125 C1.73984375 9.2253125 1.73984375 9.2253125 1.58203125 10.140625 C0.79629092 12.64070786 -0.07465728 13.70347582 -2.10546875 15.328125 C-2.76546875 15.328125 -3.42546875 15.328125 -4.10546875 15.328125 C-5.0397052 12.31780756 -5.14996786 11.46162232 -4.10546875 8.328125 C-6.58046875 7.338125 -6.58046875 7.338125 -9.10546875 6.328125 C-9.43546875 8.968125 -9.76546875 11.608125 -10.10546875 14.328125 C-12.43526515 10.68781812 -12.49172445 7.57693773 -12.10546875 3.328125 C-8.94699853 -0.97887984 -4.98299144 -1.59011972 0 0 Z " fill="#364B59" transform="translate(29.10546875,10.671875)"/>
<path d="M0 0 C6.92146048 -0.51910954 12.63192208 -0.82244145 18.375 3.4609375 C22.58644913 7.44966576 24.21483304 11.12722317 24.5 16.9375 C24.3029494 21.89408035 22.8915334 25.95818507 20 30 C19.34 30.33 18.68 30.66 18 31 C17.875 24.375 17.875 24.375 19 21 C18.91232913 18.25392224 18.77043265 15.54908492 18.5625 12.8125 C18.48418945 11.68811523 18.48418945 11.68811523 18.40429688 10.54101562 C18.27486216 8.69362918 18.13813482 6.84675629 18 5 C9.28912576 2.58142302 9.28912576 2.58142302 0.625 4 C0.08875 4.33 -0.4475 4.66 -1 5 C-0.67 3.35 -0.34 1.7 0 0 Z " fill="#D592B6" transform="translate(18,6)"/>
<path d="M0 0 C0.99 0 1.98 0 3 0 C3 2.64 3 5.28 3 8 C4.65 8 6.3 8 8 8 C7.67 9.65 7.34 11.3 7 13 C5.72125 13.061875 4.4425 13.12375 3.125 13.1875 C2.40570312 13.22230469 1.68640625 13.25710937 0.9453125 13.29296875 C0.30335937 13.19628906 -0.33859375 13.09960938 -1 13 C-3 10 -3 10 -2.75 6.5 C-2 3 -2 3 0 0 Z " fill="#F8F7F8" transform="translate(15,17)"/>
<path d="M0 0 C2.375 -0.1875 2.375 -0.1875 5 0 C5.66 0.99 6.32 1.98 7 3 C6.01 3 5.02 3 4 3 C4 3.99 4 4.98 4 6 C2.68 6 1.36 6 0 6 C0 6.99 0 7.98 0 9 C2.31 8.34 4.62 7.68 7 7 C6.67 7.99 6.34 8.98 6 10 C4.02 10.33 2.04 10.66 0 11 C-1.5625 9.3125 -1.5625 9.3125 -3 7 C-2.6875 4.25 -2.6875 4.25 -2 2 C-1.34 2 -0.68 2 0 2 C0 1.34 0 0.68 0 0 Z " fill="#A3ACB2" transform="translate(24,29)"/>
<path d="M0 0 C1.98 0.99 3.96 1.98 6 3 C6 5.31 6 7.62 6 10 C6.99 9.67 7.98 9.34 9 9 C9 10.32 9 11.64 9 13 C7.68 13 6.36 13 5 13 C4.67 12.01 4.34 11.02 4 10 C2.68 9.67 1.36 9.34 0 9 C0 6.03 0 3.06 0 0 Z " fill="#354A57" transform="translate(19,16)"/>
<path d="M0 0 C3 1.5625 3 1.5625 6 4 C6.375 7.75 6.375 7.75 6 11 C5.360625 10.814375 4.72125 10.62875 4.0625 10.4375 C3.0415625 10.2209375 3.0415625 10.2209375 2 10 C1.67 10.33 1.34 10.66 1 11 C-0.66617115 11.04063832 -2.33388095 11.042721 -4 11 C-4 10.01 -4 9.02 -4 8 C-2.68 8 -1.36 8 0 8 C0 7.01 0 6.02 0 5 C0.66 4.67 1.32 4.34 2 4 C1.34 2.68 0.68 1.36 0 0 Z " fill="#596A75" transform="translate(28,27)"/>
<path d="M0 0 C0.66 0 1.32 0 2 0 C1.690625 0.680625 1.38125 1.36125 1.0625 2.0625 C-0.1426441 5.39436899 -0.66763151 8.47689403 -1 12 C-0.67 12.66 -0.34 13.32 0 14 C3.02934491 14.65772428 3.02934491 14.65772428 6 15 C5.21625 15.7425 4.4325 16.485 3.625 17.25 C1.43495469 19.54433318 0.17268614 21.12158858 -1 24 C-1 23.34 -1 22.68 -1 22 C-1.66 21.67 -2.32 21.34 -3 21 C-2.62875 20.4225 -2.2575 19.845 -1.875 19.25 C-1.441875 18.13625 -1.441875 18.13625 -1 17 C-1.28875 16.4225 -1.5775 15.845 -1.875 15.25 C-3.5439737 11.91205259 -3.48103833 8.62573669 -3 5 C-1.625 2 -1.625 2 0 0 Z " fill="#E6C1D4" transform="translate(14,15)"/>
<path d="M0 0 C0.91458984 0.29197266 0.91458984 0.29197266 1.84765625 0.58984375 C1.30496094 0.88117187 0.76226562 1.1725 0.203125 1.47265625 C-4.5393127 4.18994488 -7.56069898 6.11856486 -9.15234375 11.58984375 C-9.37335489 15.6040229 -9.32776022 19.57475557 -9.15234375 23.58984375 C-11.03923769 21.99903157 -12.04460038 21.0450595 -12.62109375 18.609375 C-12.70965066 12.35504304 -11.12508668 8.40923681 -7.15234375 3.58984375 C-2.99228277 -0.57021723 -2.99228277 -0.57021723 0 0 Z " fill="#676C7B" transform="translate(18.15234375,7.41015625)"/>
<path d="M0 0 C8.13952903 -0.61046468 13.5737569 -0.2922002 20 5 C19.34 5.66 18.68 6.32 18 7 C18 6.34 18 5.68 18 5 C9.28912576 2.58142302 9.28912576 2.58142302 0.625 4 C0.08875 4.33 -0.4475 4.66 -1 5 C-0.67 3.35 -0.34 1.7 0 0 Z " fill="#D196B6" transform="translate(18,6)"/>
<path d="M0 0 C3.875 4.75 3.875 4.75 5 7 C3.35 6.67 1.7 6.34 0 6 C-0.33 8.64 -0.66 11.28 -1 14 C-3.3297964 10.35969312 -3.3862557 7.24881273 -3 3 C-1.5 1.0625 -1.5 1.0625 0 0 Z " fill="#9CA7AE" transform="translate(20,11)"/>
<path d="M0 0 C1.52299523 2.93720508 2.80100302 5.9168649 4 9 C3.01 9.99 2.02 10.98 1 12 C-0.625 9.9375 -0.625 9.9375 -2 7 C-1.1875 3.1875 -1.1875 3.1875 0 0 Z " fill="#D590B4" transform="translate(10,24)"/>
<path d="M0 0 C2.375 -0.1875 2.375 -0.1875 5 0 C5.66 0.99 6.32 1.98 7 3 C6.01 3 5.02 3 4 3 C4 3.66 4 4.32 4 5 C2.02 5.33 0.04 5.66 -2 6 C-2 4.68 -2 3.36 -2 2 C-1.34 2 -0.68 2 0 2 C0 1.34 0 0.68 0 0 Z " fill="#E1E4E6" transform="translate(24,29)"/>
<path d="M0 0 C1.32 0 2.64 0 4 0 C4 2.31 4 4.62 4 7 C3.01 7.33 2.02 7.66 1 8 C0.67 8.66 0.34 9.32 0 10 C0 6.7 0 3.4 0 0 Z " fill="#F0D8E4" transform="translate(34,20)"/>
<path d="M0 0 C4.43090471 1.20842856 6.98112756 2.51668565 10 6 C9.01 6.495 9.01 6.495 8 7 C8 6.34 8 5.68 8 5 C3.545 4.01 3.545 4.01 -1 3 C-0.67 2.01 -0.34 1.02 0 0 Z " fill="#DDA4C2" transform="translate(28,6)"/>
<path d="M0 0 C1.98 0 3.96 0 6 0 C5.21625 0.7425 4.4325 1.485 3.625 2.25 C1.43495469 4.54433318 0.17268614 6.12158858 -1 9 C-1 8.34 -1 7.68 -1 7 C-1.66 6.67 -2.32 6.34 -3 6 C-2.505 5.195625 -2.01 4.39125 -1.5 3.5625 C0.08419653 1.35103815 0.08419653 1.35103815 0 0 Z " fill="#E8E0E6" transform="translate(14,30)"/>
<path d="M0 0 C0.99 0 1.98 0 3 0 C2.34 1.65 1.68 3.3 1 5 C-0.65 5 -2.3 5 -4 5 C-4 4.01 -4 3.02 -4 2 C-2.68 2 -1.36 2 0 2 C0 1.34 0 0.68 0 0 Z " fill="#3E515E" transform="translate(28,33)"/>
<path d="M0 0 C0.66 0 1.32 0 2 0 C2.33 1.98 2.66 3.96 3 6 C2.01 6.33 1.02 6.66 0 7 C-0.93423645 3.98968256 -1.04449911 3.13349732 0 0 Z " fill="#8D99A1" transform="translate(25,19)"/>
<path d="M0 0 C2.23551759 3.35327639 2.17283528 3.90743657 1.625 7.6875 C1.51414062 8.49574219 1.40328125 9.30398437 1.2890625 10.13671875 C1.19367187 10.75160156 1.09828125 11.36648437 1 12 C-1.12157386 8.20129266 -1.24663053 5.35713932 -1 1 C-0.67 0.67 -0.34 0.34 0 0 Z " fill="#6F7F89" transform="translate(18,13)"/>
</svg>
